<svg xmlns="http://www.w3.org/2000/svg" xmlns:xlink="http://www.w3.org/1999/xlink" width="250" zoomAndPan="magnify" viewBox="0 0 187.5 74.999997" height="100" preserveAspectRatio="xMidYMid meet" version="1.0"><defs><g/><clipPath id="ead0f3dd0c"><path d="M 0 0.101562 L 187 0.101562 L 187 74.898438 L 0 74.898438 Z M 0 0.101562 " clip-rule="nonzero"/></clipPath><clipPath id="7676833c34"><path d="M 163.746094 7.578125 L 179.519531 7.578125 L 179.519531 23.355469 L 163.746094 23.355469 Z M 163.746094 7.578125 " clip-rule="nonzero"/></clipPath><clipPath id="7da28e3914"><path d="M 171.632812 7.578125 C 167.277344 7.578125 163.746094 11.109375 163.746094 15.464844 C 163.746094 19.824219 167.277344 23.355469 171.632812 23.355469 C 175.988281 23.355469 179.519531 19.824219 179.519531 15.464844 C 179.519531 11.109375 175.988281 7.578125 171.632812 7.578125 Z M 171.632812 7.578125 " clip-rule="nonzero"/></clipPath><clipPath id="f37635dbcb"><path d="M 165.796875 11.160156 L 177.519531 11.160156 L 177.519531 19.714844 L 165.796875 19.714844 Z M 165.796875 11.160156 " clip-rule="nonzero"/></clipPath></defs><g clip-path="url(#ead0f3dd0c)"><path fill="#ffffff" d="M 0 0.101562 L 187 0.101562 L 187 74.898438 L 0 74.898438 Z M 0 0.101562 " fill-opacity="1" fill-rule="nonzero"/><path fill="#bdff03" d="M 0 0.101562 L 187 0.101562 L 187 74.898438 L 0 74.898438 Z M 0 0.101562 " fill-opacity="1" fill-rule="nonzero"/></g><g fill="#8511b4" fill-opacity="1"><g transform="translate(87.340575, 47.820894)"><g><path d="M 1.546875 -18.824219 L 1.546875 0 L 9.722656 0 C 15.679688 0 19.394531 -3.714844 19.394531 -8.820312 L 19.394531 -10.003906 C 19.394531 -15.113281 15.679688 -18.824219 9.722656 -18.824219 Z M 14.15625 -8.949219 C 14.15625 -6.34375 12.328125 -4.511719 9.101562 -4.511719 L 6.703125 -4.511719 L 6.703125 -14.3125 L 9.101562 -14.3125 C 12.328125 -14.3125 14.15625 -12.480469 14.15625 -9.875 Z M 14.15625 -8.949219 "/></g></g></g><g fill="#8511b4" fill-opacity="1"><g transform="translate(107.298799, 47.820894)"><g><path d="M 6.601562 -17.664062 C 6.601562 -16.144531 5.621094 -15.1875 3.972656 -15.1875 C 2.320312 -15.1875 1.339844 -16.144531 1.339844 -17.664062 C 1.339844 -19.160156 2.320312 -20.140625 3.972656 -20.140625 C 5.621094 -20.140625 6.601562 -19.160156 6.601562 -17.664062 Z M 6.445312 0 L 6.445312 -13.667969 L 1.496094 -13.667969 L 1.496094 0 Z M 6.445312 0 "/></g></g></g><g fill="#8511b4" fill-opacity="1"><g transform="translate(115.240834, 47.820894)"><g><path d="M 16.503906 0.285156 C 16.503906 -2.167969 14.957031 -3.6875 11.296875 -3.6875 L 6.34375 -3.6875 C 5.261719 -3.6875 5.003906 -3.894531 5.003906 -4.332031 C 5.003906 -4.746094 5.261719 -5.003906 6.265625 -5.003906 L 8.199219 -5.003906 C 13.460938 -5.003906 15.421875 -6.960938 15.421875 -9.4375 L 15.421875 -9.566406 C 15.421875 -11.527344 14.261719 -13.125 11.296875 -13.769531 C 11.578125 -14.3125 12.222656 -14.621094 13.511719 -14.621094 C 14.183594 -14.621094 14.90625 -14.542969 15.421875 -14.46875 L 15.421875 -18.773438 C 15.058594 -18.878906 14.597656 -18.980469 13.925781 -18.980469 C 11.707031 -18.980469 9.851562 -17.226562 9.644531 -14.003906 C 9.179688 -14.027344 8.714844 -14.054688 8.199219 -14.054688 C 2.941406 -14.054688 0.980469 -12.09375 0.980469 -9.566406 L 0.980469 -9.464844 C 0.980469 -7.867188 1.78125 -6.5 3.714844 -5.699219 C 1.753906 -5.234375 0.902344 -4.046875 0.902344 -2.65625 C 0.902344 -1.238281 1.960938 0 3.917969 0.335938 C 2.011719 0.617188 1.238281 1.546875 1.238281 2.734375 C 1.238281 4.125 2.449219 5.519531 7.941406 5.519531 C 14.363281 5.519531 16.503906 3.378906 16.503906 0.285156 Z M 8.199219 -10.984375 C 9.980469 -10.984375 10.597656 -10.367188 10.597656 -9.515625 C 10.597656 -8.664062 9.980469 -8.046875 8.199219 -8.046875 C 6.421875 -8.046875 5.800781 -8.664062 5.800781 -9.515625 C 5.800781 -10.367188 6.421875 -10.984375 8.199219 -10.984375 Z M 8.640625 2.449219 C 5.828125 2.449219 5.363281 1.910156 5.363281 1.261719 C 5.363281 0.59375 5.828125 0.0507812 9.101562 0.0507812 C 11.835938 0.0507812 12.25 0.515625 12.25 1.132812 C 12.25 1.78125 11.605469 2.449219 8.640625 2.449219 Z M 8.640625 2.449219 "/></g></g></g><g fill="#8511b4" fill-opacity="1"><g transform="translate(131.743759, 47.820894)"><g><path d="M 6.601562 -17.664062 C 6.601562 -16.144531 5.621094 -15.1875 3.972656 -15.1875 C 2.320312 -15.1875 1.339844 -16.144531 1.339844 -17.664062 C 1.339844 -19.160156 2.320312 -20.140625 3.972656 -20.140625 C 5.621094 -20.140625 6.601562 -19.160156 6.601562 -17.664062 Z M 6.445312 0 L 6.445312 -13.667969 L 1.496094 -13.667969 L 1.496094 0 Z M 6.445312 0 "/></g></g></g><g fill="#8511b4" fill-opacity="1"><g transform="translate(139.685794, 47.820894)"><g><path d="M 12.636719 -13.667969 L 8.019531 -13.667969 L 8.019531 -17.714844 L 5.183594 -17.714844 L 3.273438 -13.667969 L 0.386719 -13.667969 L 0.386719 -9.542969 L 3.09375 -9.542969 L 3.09375 -5.441406 C 3.09375 -1.417969 4.898438 0.386719 9.128906 0.386719 C 10.78125 0.386719 12.015625 0.15625 12.660156 0 L 12.660156 -4.101562 C 12.09375 -3.996094 11.242188 -3.867188 10.238281 -3.867188 C 8.433594 -3.867188 8.019531 -4.28125 8.019531 -6.164062 L 8.019531 -9.542969 L 12.636719 -9.542969 Z M 12.636719 -13.667969 "/></g></g></g><g fill="#8511b4" fill-opacity="1"><g transform="translate(153.249137, 47.820894)"><g><path d="M 7.941406 -14.054688 C 3.429688 -14.054688 1.417969 -11.964844 1.03125 -8.898438 L 5.984375 -8.898438 C 6.164062 -9.695312 6.679688 -10.210938 7.890625 -10.210938 C 9.128906 -10.210938 9.695312 -9.746094 9.851562 -8.613281 L 8.019531 -8.328125 C 2.992188 -7.554688 0.722656 -6.085938 0.722656 -3.121094 C 0.722656 -1.160156 2.269531 0.386719 5.132812 0.386719 C 8.097656 0.386719 10.1875 -1.058594 10.984375 -3.558594 L 12.457031 0 L 14.777344 0 L 14.777344 -7.453125 C 14.777344 -11.785156 12.507812 -14.054688 7.941406 -14.054688 Z M 6.886719 -3.378906 C 6.136719 -3.378906 5.777344 -3.738281 5.777344 -4.203125 C 5.777344 -5.054688 6.910156 -5.597656 9.207031 -5.984375 L 9.980469 -6.113281 C 9.980469 -4.667969 8.664062 -3.378906 6.886719 -3.378906 Z M 6.886719 -3.378906 "/></g></g></g><g fill="#8511b4" fill-opacity="1"><g transform="translate(169.133201, 47.820894)"><g><path d="M 6.472656 -18.824219 L 1.523438 -18.824219 L 1.523438 0 L 6.472656 0 Z M 6.472656 -18.824219 "/></g></g></g><g fill="#8511b4" fill-opacity="1"><g transform="translate(7.972045, 47.820894)"><g><path d="M 11.914062 -18.824219 L 6.34375 -18.824219 L -0.128906 0 L 5.105469 0 L 6.136719 -3.25 L 12.144531 -3.25 L 13.179688 0 L 18.4375 0 Z M 10.882812 -7.246094 L 7.402344 -7.246094 L 9.128906 -12.765625 Z M 10.882812 -7.246094 "/></g></g></g><g fill="#8511b4" fill-opacity="1"><g transform="translate(26.279976, 47.820894)"><g><path d="M 6.472656 -18.824219 L 1.523438 -18.824219 L 1.523438 0 L 6.472656 0 Z M 6.472656 -18.824219 "/></g></g></g><g fill="#8511b4" fill-opacity="1"><g transform="translate(34.273581, 47.820894)"><g><path d="M 10.78125 -14.054688 C 8.226562 -14.054688 6.136719 -12.429688 5.46875 -9.542969 L 3.816406 -13.667969 L 1.496094 -13.667969 L 1.496094 5.15625 L 6.445312 5.15625 L 6.445312 -2.425781 C 7.375 -0.59375 8.972656 0.386719 10.78125 0.386719 C 13.847656 0.386719 16.503906 -2.269531 16.503906 -6.550781 L 16.503906 -7.117188 C 16.503906 -11.398438 13.847656 -14.054688 10.78125 -14.054688 Z M 9 -3.894531 C 7.480469 -3.894531 6.445312 -4.925781 6.445312 -6.832031 C 6.445312 -8.742188 7.480469 -9.773438 9 -9.773438 C 10.546875 -9.773438 11.527344 -8.792969 11.527344 -6.832031 C 11.527344 -4.875 10.546875 -3.894531 9 -3.894531 Z M 9 -3.894531 "/></g></g></g><g fill="#8511b4" fill-opacity="1"><g transform="translate(51.421151, 47.820894)"><g><path d="M 10.597656 -14.054688 C 8.871094 -14.054688 7.296875 -13.074219 6.445312 -11.167969 L 6.445312 -18.824219 L 1.496094 -18.824219 L 1.496094 0 L 6.445312 0 L 6.445312 -6.808594 C 6.445312 -8.742188 7.375 -9.671875 8.640625 -9.671875 C 9.824219 -9.671875 10.46875 -9.027344 10.46875 -7.222656 L 10.46875 0 L 15.421875 0 L 15.421875 -7.941406 C 15.421875 -11.914062 13.28125 -14.054688 10.597656 -14.054688 Z M 10.597656 -14.054688 "/></g></g></g><g fill="#8511b4" fill-opacity="1"><g transform="translate(68.001436, 47.820894)"><g><path d="M 7.941406 -14.054688 C 3.429688 -14.054688 1.417969 -11.964844 1.03125 -8.898438 L 5.984375 -8.898438 C 6.164062 -9.695312 6.679688 -10.210938 7.890625 -10.210938 C 9.128906 -10.210938 9.695312 -9.746094 9.851562 -8.613281 L 8.019531 -8.328125 C 2.992188 -7.554688 0.722656 -6.085938 0.722656 -3.121094 C 0.722656 -1.160156 2.269531 0.386719 5.132812 0.386719 C 8.097656 0.386719 10.1875 -1.058594 10.984375 -3.558594 L 12.457031 0 L 14.777344 0 L 14.777344 -7.453125 C 14.777344 -11.785156 12.507812 -14.054688 7.941406 -14.054688 Z M 6.886719 -3.378906 C 6.136719 -3.378906 5.777344 -3.738281 5.777344 -4.203125 C 5.777344 -5.054688 6.910156 -5.597656 9.207031 -5.984375 L 9.980469 -6.113281 C 9.980469 -4.667969 8.664062 -3.378906 6.886719 -3.378906 Z M 6.886719 -3.378906 "/></g></g></g><g clip-path="url(#7676833c34)"><g clip-path="url(#7da28e3914)"><path fill="#8511b4" d="M 163.746094 7.578125 L 179.519531 7.578125 L 179.519531 23.355469 L 163.746094 23.355469 Z M 163.746094 7.578125 " fill-opacity="1" fill-rule="nonzero"/></g></g><g clip-path="url(#f37635dbcb)"><path fill="#fefefe" d="M 177.464844 18.574219 L 176.046875 19.769531 L 173.640625 16.914062 L 172.441406 15.492188 L 170.917969 13.683594 C 170.554688 13.417969 170.140625 13.28125 169.714844 13.28125 C 169.414062 13.28125 169.109375 13.347656 168.820312 13.488281 C 168.09375 13.839844 167.660156 14.527344 167.660156 15.332031 C 167.660156 15.691406 167.746094 16 167.878906 16.261719 C 168.121094 16.738281 168.527344 17.058594 168.921875 17.222656 C 169.363281 17.40625 169.957031 17.464844 170.519531 17.21875 C 170.53125 17.210938 170.546875 17.203125 170.566406 17.191406 C 171.355469 16.699219 172.382812 16.863281 172.980469 17.574219 L 172.464844 18.09375 C 171.328125 19.230469 169.699219 19.554688 168.210938 18.9375 C 167.019531 18.445312 166.195312 17.460938 165.910156 16.261719 C 165.839844 15.964844 165.804688 15.652344 165.804688 15.332031 C 165.804688 13.820312 166.648438 12.472656 168.015625 11.816406 C 169.378906 11.160156 170.960938 11.339844 172.140625 12.285156 L 172.273438 12.414062 L 173.757812 14.175781 L 174.414062 13.515625 L 176.101562 11.832031 L 177.410156 13.144531 L 174.957031 15.597656 Z M 177.464844 18.574219 " fill-opacity="1" fill-rule="nonzero"/></g></svg>