<svg xmlns="http://www.w3.org/2000/svg" xmlns:xlink="http://www.w3.org/1999/xlink" width="500" zoomAndPan="magnify" viewBox="0 0 375 374.999991" height="500" preserveAspectRatio="xMidYMid meet" version="1.0"><defs><g/></defs><rect x="-37.5" width="450" fill="#ffffff" y="-37.499999" height="449.999989" fill-opacity="1"/><rect x="-37.5" width="450" fill="#000000" y="-37.499999" height="449.999989" fill-opacity="1"/><g fill="#ffffff" fill-opacity="1"><g transform="translate(105.598129, 216.042336)"><g><path d="M 54.871094 3.488281 C 56.773438 2.378906 57.566406 0.953125 56.929688 -0.792969 C 55.980469 -3.011719 55.027344 -5.390625 53.441406 -7.292969 C 50.90625 -10.625 48.683594 -14.113281 46.78125 -17.761719 C 44.246094 -22.519531 42.183594 -27.59375 40.753906 -32.828125 C 39.328125 -38.375 38.058594 -43.925781 36 -49.320312 C 34.253906 -53.757812 34.730469 -56.136719 40.28125 -57.566406 C 41.707031 -57.882812 43.132812 -58.199219 44.5625 -58.199219 C 48.683594 -58.675781 52.648438 -60.261719 56.457031 -61.847656 L 62.640625 -64.859375 C 71.363281 -68.824219 79.449219 -73.898438 85.792969 -81.351562 C 86.109375 -81.667969 86.269531 -82.304688 86.746094 -82.460938 C 90.550781 -84.839844 91.976562 -88.964844 93.5625 -92.769531 C 94.671875 -95.625 94.355469 -98.480469 92.613281 -101.175781 C 88.648438 -107.996094 82.9375 -111.960938 75.167969 -113.226562 C 72.628906 -113.542969 70.09375 -113.703125 67.398438 -113.863281 C 60.261719 -113.863281 53.285156 -112.59375 46.304688 -110.214844 C 43.453125 -109.261719 40.4375 -108.46875 37.425781 -107.359375 C 30.289062 -104.980469 23.789062 -101.335938 17.761719 -96.734375 C 14.589844 -94.515625 13.957031 -91.183594 15.542969 -87.539062 C 15.699219 -87.0625 16.808594 -86.585938 17.125 -86.746094 C 18.554688 -87.695312 19.980469 -88.648438 21.410156 -89.757812 C 26.324219 -94.039062 31.875 -97.210938 37.902344 -99.589844 C 42.183594 -101.335938 46.78125 -102.601562 51.222656 -104.03125 C 58.992188 -106.410156 67.082031 -106.882812 75.007812 -105.773438 C 79.132812 -105.296875 82.78125 -103.554688 85.792969 -100.859375 C 88.011719 -98.636719 88.332031 -96.894531 86.902344 -94.199219 C 86.425781 -93.246094 85.792969 -92.453125 85.160156 -91.660156 C 82.460938 -87.695312 79.132812 -84.683594 75.484375 -81.667969 C 69.300781 -76.753906 62.480469 -72.789062 55.34375 -69.617188 C 52.015625 -68.191406 48.527344 -67.398438 44.878906 -66.445312 C 43.925781 -66.128906 43.769531 -66.921875 43.925781 -67.714844 C 44.085938 -68.191406 44.402344 -68.667969 44.5625 -69.140625 C 48.207031 -74.214844 51.855469 -79.292969 55.34375 -84.523438 L 56.296875 -85.792969 C 57.40625 -87.695312 57.25 -88.648438 55.503906 -90.390625 L 53.601562 -92.136719 C 51.699219 -93.5625 50.746094 -93.246094 49.476562 -91.183594 L 34.570312 -67.875 C 32.667969 -64.703125 30.449219 -62.796875 26.484375 -64.542969 C 26.324219 -64.703125 26.167969 -64.703125 26.007812 -64.703125 C 24.261719 -64.859375 23.152344 -64.066406 23.46875 -62.324219 C 23.628906 -60.261719 24.105469 -58.042969 25.054688 -56.296875 C 25.847656 -54.871094 25.847656 -53.917969 25.054688 -52.492188 L 23.3125 -49.476562 C 18.554688 -42.023438 13.957031 -34.570312 9.039062 -27.433594 C 7.453125 -25.054688 7.613281 -22.996094 8.722656 -20.617188 C 9.515625 -18.871094 10.464844 -18.394531 12.527344 -18.710938 C 14.113281 -19.03125 14.75 -20.140625 15.382812 -21.410156 C 18.710938 -27.277344 22.042969 -33.144531 25.53125 -39.011719 C 26.640625 -40.753906 27.910156 -42.5 29.179688 -44.085938 C 30.128906 -45.195312 31.082031 -45.039062 31.558594 -43.769531 C 32.035156 -42.660156 32.351562 -41.546875 32.667969 -40.28125 C 34.570312 -34.570312 36 -28.542969 38.21875 -22.835938 C 40.121094 -17.917969 42.023438 -12.84375 45.039062 -8.246094 C 46.941406 -5.707031 48.207031 -2.855469 49.792969 -0.160156 C 50.269531 0.632812 50.585938 1.746094 51.222656 2.539062 C 52.332031 3.804688 53.757812 4.125 54.871094 3.488281 Z M 54.871094 3.488281 "/></g></g></g><g fill="#ffffff" fill-opacity="1"><g transform="translate(187.109226, 216.042336)"><g><path d="M 22.675781 -0.476562 C 30.449219 -0.160156 37.582031 -2.378906 44.085938 -6.34375 C 51.378906 -10.625 56.296875 -17.285156 59.152344 -25.054688 C 61.847656 -32.191406 62.003906 -39.328125 58.199219 -46.304688 C 56.613281 -49.320312 55.1875 -52.171875 52.808594 -54.550781 C 52.332031 -55.027344 51.699219 -55.664062 51.539062 -56.296875 C 51.539062 -56.773438 51.855469 -57.566406 52.332031 -57.882812 C 52.808594 -58.199219 53.601562 -58.042969 54.394531 -58.199219 C 62.640625 -60.101562 70.886719 -62.164062 78.65625 -65.8125 C 82.460938 -67.714844 85.632812 -70.410156 89.125 -72.628906 C 92.769531 -75.007812 95.308594 -78.339844 96.894531 -82.304688 C 98.320312 -85.792969 98.636719 -89.441406 97.050781 -92.929688 C 94.515625 -98.164062 91.183594 -102.445312 86.269531 -105.457031 C 78.339844 -110.214844 70.09375 -113.542969 60.894531 -114.8125 C 57.25 -114.972656 53.601562 -115.449219 50.113281 -115.289062 C 47.097656 -115.128906 44.246094 -114.496094 41.390625 -114.335938 C 34.730469 -113.863281 28.226562 -112.117188 21.882812 -110.214844 C 18.394531 -109.261719 17.761719 -107.835938 19.503906 -104.503906 C 20.773438 -102.125 22.203125 -99.90625 23.628906 -97.84375 C 25.214844 -95.625 26.484375 -94.992188 27.277344 -95.785156 C 28.703125 -96.734375 28.226562 -98.164062 27.910156 -99.589844 C 27.433594 -102.285156 27.59375 -102.285156 29.972656 -103.394531 C 34.730469 -105.457031 39.488281 -106.566406 44.5625 -107.042969 C 57.25 -108.152344 69.457031 -106.882812 80.71875 -101.175781 C 84.046875 -99.429688 87.539062 -98.164062 90.074219 -95.308594 C 90.710938 -94.515625 91.660156 -93.246094 91.5 -92.292969 C 91.34375 -88.964844 90.710938 -85.632812 88.648438 -82.78125 C 85.792969 -78.972656 82.144531 -75.800781 78.023438 -73.742188 C 71.519531 -70.09375 64.226562 -68.191406 56.929688 -66.445312 C 56.613281 -66.445312 56.136719 -66.289062 55.980469 -66.445312 C 55.664062 -66.605469 55.1875 -67.238281 55.34375 -67.398438 C 56.136719 -68.667969 56.929688 -69.777344 57.722656 -70.886719 C 60.417969 -74.058594 62.957031 -77.386719 65.652344 -80.558594 C 66.605469 -81.828125 67.082031 -82.9375 66.445312 -84.523438 C 65.8125 -85.953125 65.335938 -87.378906 64.542969 -88.804688 C 63.589844 -90.710938 62.324219 -91.027344 60.894531 -89.441406 C 59.46875 -88.011719 58.199219 -86.269531 56.929688 -84.683594 C 55.027344 -82.144531 53.285156 -79.449219 51.539062 -76.914062 C 49.636719 -74.535156 47.417969 -72.15625 45.988281 -69.457031 C 43.769531 -65.175781 41.390625 -62.640625 36.15625 -64.542969 C 34.886719 -65.019531 33.460938 -63.75 33.621094 -62.164062 C 33.621094 -60.417969 33.777344 -58.515625 34.570312 -57.089844 C 35.679688 -55.34375 35.363281 -53.917969 34.414062 -52.332031 C 32.351562 -49 30.449219 -45.832031 28.703125 -42.5 C 26.484375 -38.058594 24.261719 -33.777344 22.359375 -29.179688 C 20.933594 -25.847656 22.042969 -22.835938 24.738281 -20.296875 C 25.847656 -19.503906 27.117188 -19.824219 27.75 -21.089844 C 28.070312 -21.566406 28.226562 -22.042969 28.386719 -22.519531 C 31.082031 -30.921875 35.363281 -38.535156 39.644531 -45.988281 C 40.753906 -47.890625 42.023438 -49.476562 43.292969 -51.222656 C 44.5625 -52.648438 45.195312 -52.648438 46.941406 -51.699219 C 50.113281 -49.792969 52.015625 -46.941406 53.441406 -43.769531 C 56.613281 -35.839844 53.757812 -28.863281 49.792969 -22.359375 C 46.148438 -16.492188 40.914062 -11.578125 33.460938 -10.308594 L 32.984375 -10.148438 C 26.484375 -7.769531 19.980469 -7.929688 13.480469 -9.992188 C 10.308594 -10.941406 7.613281 -12.84375 7.292969 -16.808594 C 7.136719 -18.238281 6.183594 -19.664062 5.234375 -20.933594 C 4.597656 -21.410156 3.332031 -21.726562 2.378906 -21.566406 C 0.953125 -21.566406 0.160156 -20.457031 0 -19.1875 C -0.160156 -18.394531 0 -17.761719 0 -17.125 C 0.160156 -13.636719 2.695312 -11.578125 4.441406 -9.039062 C 9.039062 -2.695312 15.542969 -0.792969 22.675781 -0.476562 Z M 22.675781 -0.476562 "/></g></g></g><g fill="#ffffff" fill-opacity="1"><g transform="translate(50.911441, 231.073989)"><g><path d="M 2.871094 0 L 2.871094 -3.367188 L 4.496094 -3.367188 C 4.625 -3.367188 4.742188 -3.367188 4.867188 -3.375 L 6.746094 0 L 8.742188 0 L 6.59375 -3.636719 C 7.757812 -4.042969 8.527344 -5.0625 8.527344 -6.402344 C 8.527344 -8.253906 7.152344 -9.496094 5.230469 -9.496094 L 1.132812 -9.496094 L 1.132812 0 Z M 2.871094 -7.949219 L 5.160156 -7.949219 C 6.082031 -7.949219 6.789062 -7.269531 6.789062 -6.402344 C 6.789062 -5.476562 6.089844 -4.839844 5.167969 -4.832031 L 2.871094 -4.832031 Z M 2.871094 -7.949219 "/></g></g></g><g fill="#ffffff" fill-opacity="1"><g transform="translate(71.39958, 231.073989)"><g><path d="M 5.578125 0.203125 C 8.410156 0.203125 10.707031 -2.003906 10.707031 -4.761719 C 10.707031 -7.519531 8.410156 -9.722656 5.578125 -9.722656 C 2.75 -9.722656 0.460938 -7.519531 0.460938 -4.761719 C 0.460938 -2.003906 2.75 0.203125 5.578125 0.203125 Z M 5.578125 -1.398438 C 3.714844 -1.398438 2.199219 -2.828125 2.199219 -4.757812 C 2.199219 -6.691406 3.707031 -8.128906 5.578125 -8.128906 C 7.457031 -8.128906 8.972656 -6.699219 8.972656 -4.757812 C 8.972656 -2.828125 7.457031 -1.398438 5.578125 -1.398438 Z M 5.578125 -1.398438 "/></g></g></g><g fill="#ffffff" fill-opacity="1"><g transform="translate(94.009911, 231.073989)"><g><path d="M 4.335938 0.214844 C 6.683594 0.214844 8.207031 -0.816406 8.207031 -2.660156 C 8.207031 -4.558594 6.585938 -5.25 4.839844 -5.574219 C 3.246094 -5.832031 2.457031 -6.195312 2.457031 -6.992188 C 2.457031 -7.589844 2.8125 -8.199219 4.253906 -8.199219 C 5.546875 -8.199219 6.109375 -7.605469 6.109375 -6.871094 L 7.851562 -6.871094 C 7.851562 -8.574219 6.640625 -9.722656 4.273438 -9.722656 C 1.808594 -9.722656 0.71875 -8.539062 0.71875 -6.996094 C 0.71875 -5.027344 2.667969 -4.457031 4.261719 -4.128906 C 5.578125 -3.875 6.445312 -3.546875 6.445312 -2.667969 C 6.445312 -1.726562 5.753906 -1.25 4.328125 -1.25 C 2.988281 -1.25 2.214844 -1.960938 2.214844 -2.847656 L 0.476562 -2.847656 C 0.476562 -1.363281 1.59375 0.214844 4.335938 0.214844 Z M 4.335938 0.214844 "/></g></g></g><g fill="#ffffff" fill-opacity="1"><g transform="translate(114.100139, 231.073989)"><g><path d="M 4.335938 0.214844 C 6.683594 0.214844 8.207031 -0.816406 8.207031 -2.660156 C 8.207031 -4.558594 6.585938 -5.25 4.839844 -5.574219 C 3.246094 -5.832031 2.457031 -6.195312 2.457031 -6.992188 C 2.457031 -7.589844 2.8125 -8.199219 4.253906 -8.199219 C 5.546875 -8.199219 6.109375 -7.605469 6.109375 -6.871094 L 7.851562 -6.871094 C 7.851562 -8.574219 6.640625 -9.722656 4.273438 -9.722656 C 1.808594 -9.722656 0.71875 -8.539062 0.71875 -6.996094 C 0.71875 -5.027344 2.667969 -4.457031 4.261719 -4.128906 C 5.578125 -3.875 6.445312 -3.546875 6.445312 -2.667969 C 6.445312 -1.726562 5.753906 -1.25 4.328125 -1.25 C 2.988281 -1.25 2.214844 -1.960938 2.214844 -2.847656 L 0.476562 -2.847656 C 0.476562 -1.363281 1.59375 0.214844 4.335938 0.214844 Z M 4.335938 0.214844 "/></g></g></g><g fill="#ffffff" fill-opacity="1"><g transform="translate(134.190366, 231.073989)"><g/></g></g><g fill="#ffffff" fill-opacity="1"><g transform="translate(149.121712, 231.073989)"><g><path d="M 5.671875 0 C 7.199219 0 8.707031 -0.878906 8.707031 -2.757812 C 8.707031 -3.828125 7.917969 -4.722656 6.960938 -5.027344 C 7.621094 -5.308594 8.164062 -6.089844 8.164062 -6.929688 C 8.164062 -8.511719 6.996094 -9.496094 5.273438 -9.496094 L 1.132812 -9.496094 L 1.132812 0 Z M 2.882812 -8.003906 L 5.195312 -8.003906 C 5.886719 -8.003906 6.410156 -7.472656 6.410156 -6.773438 C 6.410156 -6.070312 5.886719 -5.53125 5.1875 -5.53125 L 2.882812 -5.53125 Z M 2.882812 -4.226562 L 5.53125 -4.226562 C 6.328125 -4.226562 6.929688 -3.625 6.929688 -2.890625 C 6.929688 -2.074219 6.328125 -1.5 5.515625 -1.5 L 2.882812 -1.5 Z M 2.882812 -4.226562 "/></g></g></g><g fill="#ffffff" fill-opacity="1"><g transform="translate(169.721546, 231.073989)"><g><path d="M 2.871094 0 L 2.871094 -3.367188 L 4.496094 -3.367188 C 4.625 -3.367188 4.742188 -3.367188 4.867188 -3.375 L 6.746094 0 L 8.742188 0 L 6.59375 -3.636719 C 7.757812 -4.042969 8.527344 -5.0625 8.527344 -6.402344 C 8.527344 -8.253906 7.152344 -9.496094 5.230469 -9.496094 L 1.132812 -9.496094 L 1.132812 0 Z M 2.871094 -7.949219 L 5.160156 -7.949219 C 6.082031 -7.949219 6.789062 -7.269531 6.789062 -6.402344 C 6.789062 -5.476562 6.089844 -4.839844 5.167969 -4.832031 L 2.871094 -4.832031 Z M 2.871094 -7.949219 "/></g></g></g><g fill="#ffffff" fill-opacity="1"><g transform="translate(190.209684, 231.073989)"><g><path d="M 9.617188 0 L 5.664062 -9.503906 L 4.015625 -9.503906 L 0.0625 0 L 1.898438 0 L 2.652344 -1.835938 L 7.027344 -1.835938 L 7.78125 0 Z M 4.777344 -7.03125 L 4.832031 -7.261719 L 4.855469 -7.261719 L 4.894531 -7.03125 L 6.433594 -3.289062 L 3.246094 -3.289062 Z M 4.777344 -7.03125 "/></g></g></g><g fill="#ffffff" fill-opacity="1"><g transform="translate(211.340065, 231.073989)"><g><path d="M 2.871094 0 L 2.871094 -6.640625 L 8.046875 0 L 9.53125 0 L 9.53125 -9.496094 L 7.800781 -9.496094 L 7.800781 -2.847656 L 2.625 -9.496094 L 1.132812 -9.496094 L 1.132812 0 Z M 2.871094 0 "/></g></g></g><g fill="#ffffff" fill-opacity="1"><g transform="translate(233.447772, 231.073989)"><g><path d="M 2.871094 0 L 2.871094 -6.640625 L 8.046875 0 L 9.53125 0 L 9.53125 -9.496094 L 7.800781 -9.496094 L 7.800781 -2.847656 L 2.625 -9.496094 L 1.132812 -9.496094 L 1.132812 0 Z M 2.871094 0 "/></g></g></g><g fill="#ffffff" fill-opacity="1"><g transform="translate(255.555478, 231.073989)"><g><path d="M 2.871094 0 L 2.871094 -9.496094 L 1.132812 -9.496094 L 1.132812 0 Z M 2.871094 0 "/></g></g></g><g fill="#ffffff" fill-opacity="1"><g transform="translate(270.996418, 231.073989)"><g><path d="M 5.476562 0.203125 C 8.582031 0.203125 10.371094 -1.996094 10.351562 -5.113281 L 5.390625 -5.113281 L 5.390625 -3.660156 L 8.464844 -3.660156 C 8.199219 -2.332031 7.160156 -1.398438 5.460938 -1.398438 C 3.667969 -1.398438 2.199219 -2.695312 2.199219 -4.757812 C 2.199219 -6.78125 3.667969 -8.128906 5.460938 -8.128906 C 6.808594 -8.128906 7.871094 -7.472656 8.367188 -6.363281 L 10.132812 -6.363281 C 9.6875 -8.5 7.515625 -9.722656 5.503906 -9.722656 C 2.710938 -9.722656 0.46875 -7.519531 0.46875 -4.757812 C 0.46875 -2.011719 2.710938 0.203125 5.476562 0.203125 Z M 5.476562 0.203125 "/></g></g></g><g fill="#ffffff" fill-opacity="1"><g transform="translate(293.257693, 231.073989)"><g><path d="M 9.617188 0 L 5.664062 -9.503906 L 4.015625 -9.503906 L 0.0625 0 L 1.898438 0 L 2.652344 -1.835938 L 7.027344 -1.835938 L 7.78125 0 Z M 4.777344 -7.03125 L 4.832031 -7.261719 L 4.855469 -7.261719 L 4.894531 -7.03125 L 6.433594 -3.289062 L 3.246094 -3.289062 Z M 4.777344 -7.03125 "/></g></g></g><g fill="#ffffff" fill-opacity="1"><g transform="translate(314.388063, 231.073989)"><g><path d="M 2.871094 0 L 2.871094 -6.640625 L 8.046875 0 L 9.53125 0 L 9.53125 -9.496094 L 7.800781 -9.496094 L 7.800781 -2.847656 L 2.625 -9.496094 L 1.132812 -9.496094 L 1.132812 0 Z M 2.871094 0 "/></g></g></g></svg>