<svg xmlns="http://www.w3.org/2000/svg" xmlns:xlink="http://www.w3.org/1999/xlink" width="250" zoomAndPan="magnify" viewBox="0 0 187.5 74.999997" height="100" preserveAspectRatio="xMidYMid meet" version="1.0"><defs><g/><clipPath id="e01792e54b"><path d="M 0 0.101562 L 187 0.101562 L 187 74.898438 L 0 74.898438 Z M 0 0.101562 " clip-rule="nonzero"/></clipPath><clipPath id="9d8460b4b9"><path d="M 7 0.101562 L 175 0.101562 L 175 68 L 7 68 Z M 7 0.101562 " clip-rule="nonzero"/></clipPath></defs><g clip-path="url(#e01792e54b)"><path fill="#ffffff" d="M 0 0.101562 L 187 0.101562 L 187 74.898438 L 0 74.898438 Z M 0 0.101562 " fill-opacity="1" fill-rule="nonzero"/><path fill="#000000" d="M 0 0.101562 L 187 0.101562 L 187 74.898438 L 0 74.898438 Z M 0 0.101562 " fill-opacity="1" fill-rule="nonzero"/><rect x="-18.75" width="225" fill="#000000" y="-7.5" height="89.999996" fill-opacity="1"/></g><g clip-path="url(#9d8460b4b9)"><g fill="#ffffff" fill-opacity="1"><g transform="translate(16.704085, 54.608196)"><g><path d="M 4.109375 -5.4375 C 2.910156 -1.539062 2.273438 0.519531 2.203125 0.75 C 2.128906 1 2.050781 1.253906 1.96875 1.515625 C 1.945312 1.566406 1.9375 1.628906 1.9375 1.703125 C 1.769531 2.210938 1.609375 2.722656 1.453125 3.234375 C 0.515625 6.296875 -0.351562 9.363281 -1.15625 12.4375 C -1.144531 12.46875 -1.15625 12.503906 -1.1875 12.546875 C -1.1875 12.617188 -1.207031 12.695312 -1.25 12.78125 C -1.375 13.03125 -1.570312 13.15625 -1.84375 13.15625 C -1.90625 13.1875 -1.972656 13.195312 -2.046875 13.1875 C -2.179688 13.195312 -2.289062 13.164062 -2.375 13.09375 C -2.46875 13.019531 -2.503906 12.898438 -2.484375 12.734375 C -2.398438 12.140625 -2.273438 11.539062 -2.109375 10.9375 C -1.515625 8.914062 -0.9375 6.878906 -0.375 4.828125 C -0.03125 3.617188 0.316406 2.394531 0.671875 1.15625 C 0.828125 0.664062 1.304688 -0.894531 2.109375 -3.53125 C 2.910156 -6.164062 3.378906 -7.710938 3.515625 -8.171875 C 4.578125 -11.660156 5.71875 -15.128906 6.9375 -18.578125 C 7.71875 -20.816406 8.488281 -23.070312 9.25 -25.34375 C 9.332031 -25.613281 9.445312 -25.867188 9.59375 -26.109375 C 9.71875 -26.296875 9.882812 -26.421875 10.09375 -26.484375 C 10.164062 -26.535156 10.238281 -26.550781 10.3125 -26.53125 C 10.476562 -26.59375 10.613281 -26.570312 10.71875 -26.46875 C 10.832031 -26.375 10.878906 -26.242188 10.859375 -26.078125 C 10.828125 -25.941406 10.796875 -25.804688 10.765625 -25.671875 C 10.578125 -24.910156 10.351562 -24.140625 10.09375 -23.359375 C 9.226562 -20.722656 8.347656 -18.09375 7.453125 -15.46875 C 6.992188 -14.132812 6.539062 -12.785156 6.09375 -11.421875 C 5.863281 -10.785156 5.644531 -10.140625 5.4375 -9.484375 C 5.351562 -9.234375 5.273438 -8.988281 5.203125 -8.75 C 5.191406 -8.707031 5.179688 -8.671875 5.171875 -8.640625 C 5.128906 -8.546875 5.101562 -8.453125 5.09375 -8.359375 C 5.082031 -8.265625 5.097656 -8.179688 5.140625 -8.109375 C 5.203125 -8.054688 5.28125 -8.023438 5.375 -8.015625 C 5.445312 -8.054688 5.523438 -8.085938 5.609375 -8.109375 C 5.640625 -8.140625 5.671875 -8.164062 5.703125 -8.1875 C 6.585938 -8.613281 7.476562 -9.03125 8.375 -9.4375 C 10.875 -10.632812 13.347656 -11.867188 15.796875 -13.140625 C 18.253906 -14.410156 20.671875 -15.773438 23.046875 -17.234375 C 24.523438 -18.128906 25.984375 -19.0625 27.421875 -20.03125 C 28.867188 -21.007812 30.269531 -22.0625 31.625 -23.1875 C 32.757812 -24.125 33.796875 -25.175781 34.734375 -26.34375 C 35.203125 -26.925781 35.59375 -27.5625 35.90625 -28.25 C 36.53125 -29.613281 36.394531 -30.773438 35.5 -31.734375 C 34.945312 -32.296875 34.300781 -32.722656 33.5625 -33.015625 C 32.425781 -33.523438 31.238281 -33.867188 30 -34.046875 C 26.945312 -34.453125 23.828125 -34.523438 20.640625 -34.265625 C 18.773438 -34.097656 16.894531 -33.867188 15 -33.578125 C 13.988281 -33.410156 12.960938 -33.21875 11.921875 -33 C 10.390625 -32.6875 8.863281 -32.296875 7.34375 -31.828125 C 5.820312 -31.367188 4.332031 -30.769531 2.875 -30.03125 C 1.945312 -29.550781 1.050781 -28.992188 0.1875 -28.359375 C -0.476562 -27.890625 -1.039062 -27.332031 -1.5 -26.6875 C -1.625 -26.476562 -1.789062 -26.316406 -2 -26.203125 C -2.082031 -26.140625 -2.171875 -26.109375 -2.265625 -26.109375 C -2.421875 -26.066406 -2.566406 -26.097656 -2.703125 -26.203125 C -2.878906 -26.335938 -2.910156 -26.523438 -2.796875 -26.765625 C -2.617188 -27.117188 -2.390625 -27.441406 -2.109375 -27.734375 C -1.828125 -28.023438 -1.535156 -28.289062 -1.234375 -28.53125 C 0.171875 -29.6875 1.679688 -30.613281 3.296875 -31.3125 C 5.273438 -32.164062 7.28125 -32.820312 9.3125 -33.28125 C 11.289062 -33.757812 13.285156 -34.171875 15.296875 -34.515625 L 15.34375 -34.515625 C 15.71875 -34.578125 16.101562 -34.640625 16.5 -34.703125 C 18.414062 -34.984375 20.328125 -35.195312 22.234375 -35.34375 C 24.148438 -35.488281 26.0625 -35.503906 27.96875 -35.390625 C 28.945312 -35.328125 29.921875 -35.222656 30.890625 -35.078125 C 31.859375 -34.929688 32.800781 -34.695312 33.71875 -34.375 C 34.726562 -34.082031 35.644531 -33.628906 36.46875 -33.015625 C 38.269531 -31.578125 38.492188 -29.707031 37.140625 -27.40625 C 36.503906 -26.375 35.75 -25.441406 34.875 -24.609375 C 33.8125 -23.523438 32.691406 -22.523438 31.515625 -21.609375 C 30.335938 -20.691406 29.125 -19.828125 27.875 -19.015625 C 25.3125 -17.285156 22.691406 -15.679688 20.015625 -14.203125 C 17.347656 -12.734375 14.648438 -11.335938 11.921875 -10.015625 C 9.796875 -8.972656 7.660156 -7.960938 5.515625 -6.984375 C 5.171875 -6.835938 4.878906 -6.644531 4.640625 -6.40625 C 4.398438 -6.164062 4.222656 -5.84375 4.109375 -5.4375 Z M 44.71875 -2.15625 C 45.5625 -1.644531 40.976562 -2.035156 30.96875 -3.328125 C 24.101562 -4.265625 17.195312 -5.078125 10.25 -5.765625 C 8.320312 -5.929688 6.390625 -6.082031 4.453125 -6.21875 C 3.671875 -6.289062 2.894531 -6.351562 2.125 -6.40625 C 1.863281 -6.425781 1.597656 -6.4375 1.328125 -6.4375 C 1.285156 -6.425781 1.234375 -6.421875 1.171875 -6.421875 C 1.003906 -6.398438 0.992188 -6.632812 1.140625 -7.125 C 1.296875 -7.613281 1.539062 -7.800781 1.875 -7.6875 C 2.351562 -7.519531 3.414062 -7.34375 5.0625 -7.15625 C 6.71875 -6.976562 8.847656 -6.753906 11.453125 -6.484375 C 16.390625 -6.003906 22.304688 -5.335938 29.203125 -4.484375 C 38.710938 -3.453125 43.882812 -2.675781 44.71875 -2.15625 Z M 44.71875 -2.15625 "/></g></g><g transform="translate(42.309302, 50.449301)"><g><path d="M 1.375 -3.046875 L 1.34375 -3.046875 C 0.226562 -2.867188 -0.539062 -2.988281 -0.96875 -3.40625 C -1.40625 -3.832031 -1.492188 -4.476562 -1.234375 -5.34375 C -1.015625 -6.019531 -0.695312 -6.625 -0.28125 -7.15625 C -0.125 -7.34375 0.03125 -7.492188 0.1875 -7.609375 C 0.351562 -7.734375 0.546875 -7.816406 0.765625 -7.859375 C 0.890625 -7.898438 1.039062 -7.898438 1.21875 -7.859375 C 1.289062 -7.847656 1.351562 -7.835938 1.40625 -7.828125 C 1.539062 -7.867188 1.660156 -7.929688 1.765625 -8.015625 C 1.785156 -8.046875 1.820312 -8.070312 1.875 -8.09375 C 2.125 -8.238281 2.394531 -8.328125 2.6875 -8.359375 C 2.800781 -8.378906 2.914062 -8.398438 3.03125 -8.421875 C 3.5 -8.421875 3.875 -8.28125 4.15625 -8 C 4.4375 -7.726562 4.578125 -7.363281 4.578125 -6.90625 C 4.585938 -6.625 4.550781 -6.351562 4.46875 -6.09375 C 3.832031 -4.363281 2.828125 -3.351562 1.453125 -3.0625 Z M 2.546875 -7.484375 C 1.941406 -7.410156 1.429688 -7.144531 1.015625 -6.6875 C 0.597656 -6.238281 0.3125 -5.753906 0.15625 -5.234375 C 0 -4.710938 0 -4.300781 0.15625 -4 C 0.320312 -3.707031 0.660156 -3.671875 1.171875 -3.890625 C 1.753906 -4.179688 2.238281 -4.613281 2.625 -5.1875 C 3.007812 -5.769531 3.210938 -6.300781 3.234375 -6.78125 C 3.265625 -7.269531 3.035156 -7.503906 2.546875 -7.484375 Z M 2.546875 -7.484375 "/></g></g><g transform="translate(48.458723, 49.450489)"><g><path d="M 4.640625 -6.78125 C 3.503906 -6.125 2.6875 -5.613281 2.1875 -5.25 C 1.832031 -4.988281 1.632812 -4.789062 1.59375 -4.65625 C 1.5625 -4.519531 1.644531 -4.289062 1.84375 -3.96875 C 1.84375 -3.957031 1.851562 -3.9375 1.875 -3.90625 C 2.125 -3.53125 2.300781 -3.125 2.40625 -2.6875 C 2.601562 -1.800781 1.945312 -1.050781 0.4375 -0.4375 C -1.0625 0.164062 -2.101562 0.34375 -2.6875 0.09375 C -3.28125 -0.144531 -3.515625 -0.535156 -3.390625 -1.078125 C -3.273438 -1.628906 -2.832031 -2.234375 -2.0625 -2.890625 C -1.289062 -3.554688 -0.773438 -4.023438 -0.515625 -4.296875 C -0.265625 -4.578125 -0.21875 -4.859375 -0.375 -5.140625 C -0.425781 -5.234375 -0.488281 -5.320312 -0.5625 -5.40625 C -0.6875 -5.632812 -0.828125 -5.867188 -0.984375 -6.109375 C -1.273438 -6.535156 -1.441406 -6.972656 -1.484375 -7.421875 C -1.523438 -7.878906 -1.414062 -8.28125 -1.15625 -8.625 C -0.90625 -8.976562 -0.460938 -9.222656 0.171875 -9.359375 C 0.535156 -9.429688 0.867188 -9.4375 1.171875 -9.375 C 1.472656 -9.3125 1.734375 -9.140625 1.953125 -8.859375 C 2.128906 -8.679688 2.117188 -8.484375 1.921875 -8.265625 C 1.796875 -8.140625 1.644531 -8.101562 1.46875 -8.15625 C 1.34375 -8.175781 1.222656 -8.222656 1.109375 -8.296875 C 1.097656 -8.316406 1.09375 -8.328125 1.09375 -8.328125 C 1.050781 -8.347656 1.003906 -8.375 0.953125 -8.40625 C 0.898438 -8.46875 0.84375 -8.515625 0.78125 -8.546875 C 0.550781 -8.660156 0.335938 -8.671875 0.140625 -8.578125 C -0.046875 -8.492188 -0.171875 -8.3125 -0.234375 -8.03125 C -0.265625 -7.820312 -0.257812 -7.613281 -0.21875 -7.40625 C -0.164062 -7.144531 -0.0703125 -6.910156 0.0625 -6.703125 C 0.164062 -6.566406 0.253906 -6.441406 0.328125 -6.328125 C 0.515625 -6.003906 0.660156 -5.785156 0.765625 -5.671875 C 0.867188 -5.554688 0.972656 -5.519531 1.078125 -5.5625 C 1.191406 -5.601562 2.226562 -6.171875 4.1875 -7.265625 C 4.601562 -7.472656 4.753906 -7.3125 4.640625 -6.78125 Z M 0.359375 -1.546875 C 0.867188 -1.828125 1.039062 -2.222656 0.875 -2.734375 C 0.863281 -2.773438 0.84375 -2.820312 0.8125 -2.875 C 0.738281 -3.15625 0.640625 -3.367188 0.515625 -3.515625 C 0.398438 -3.660156 0.195312 -3.625 -0.09375 -3.40625 C -0.820312 -2.8125 -1.476562 -2.15625 -2.0625 -1.4375 C -2.09375 -1.382812 -2.125 -1.328125 -2.15625 -1.265625 C -2.15625 -1.265625 -2.160156 -1.253906 -2.171875 -1.234375 C -2.210938 -1.160156 -2.210938 -1.085938 -2.171875 -1.015625 C -2.128906 -0.941406 -2.054688 -0.914062 -1.953125 -0.9375 C -1.140625 -0.9375 -0.367188 -1.140625 0.359375 -1.546875 Z M 0.359375 -1.546875 "/></g></g><g transform="translate(53.589031, 48.617205)"><g><path d="M 4.640625 -6.78125 C 3.503906 -6.125 2.6875 -5.613281 2.1875 -5.25 C 1.832031 -4.988281 1.632812 -4.789062 1.59375 -4.65625 C 1.5625 -4.519531 1.644531 -4.289062 1.84375 -3.96875 C 1.84375 -3.957031 1.851562 -3.9375 1.875 -3.90625 C 2.125 -3.53125 2.300781 -3.125 2.40625 -2.6875 C 2.601562 -1.800781 1.945312 -1.050781 0.4375 -0.4375 C -1.0625 0.164062 -2.101562 0.34375 -2.6875 0.09375 C -3.28125 -0.144531 -3.515625 -0.535156 -3.390625 -1.078125 C -3.273438 -1.628906 -2.832031 -2.234375 -2.0625 -2.890625 C -1.289062 -3.554688 -0.773438 -4.023438 -0.515625 -4.296875 C -0.265625 -4.578125 -0.21875 -4.859375 -0.375 -5.140625 C -0.425781 -5.234375 -0.488281 -5.320312 -0.5625 -5.40625 C -0.6875 -5.632812 -0.828125 -5.867188 -0.984375 -6.109375 C -1.273438 -6.535156 -1.441406 -6.972656 -1.484375 -7.421875 C -1.523438 -7.878906 -1.414062 -8.28125 -1.15625 -8.625 C -0.90625 -8.976562 -0.460938 -9.222656 0.171875 -9.359375 C 0.535156 -9.429688 0.867188 -9.4375 1.171875 -9.375 C 1.472656 -9.3125 1.734375 -9.140625 1.953125 -8.859375 C 2.128906 -8.679688 2.117188 -8.484375 1.921875 -8.265625 C 1.796875 -8.140625 1.644531 -8.101562 1.46875 -8.15625 C 1.34375 -8.175781 1.222656 -8.222656 1.109375 -8.296875 C 1.097656 -8.316406 1.09375 -8.328125 1.09375 -8.328125 C 1.050781 -8.347656 1.003906 -8.375 0.953125 -8.40625 C 0.898438 -8.46875 0.84375 -8.515625 0.78125 -8.546875 C 0.550781 -8.660156 0.335938 -8.671875 0.140625 -8.578125 C -0.046875 -8.492188 -0.171875 -8.3125 -0.234375 -8.03125 C -0.265625 -7.820312 -0.257812 -7.613281 -0.21875 -7.40625 C -0.164062 -7.144531 -0.0703125 -6.910156 0.0625 -6.703125 C 0.164062 -6.566406 0.253906 -6.441406 0.328125 -6.328125 C 0.515625 -6.003906 0.660156 -5.785156 0.765625 -5.671875 C 0.867188 -5.554688 0.972656 -5.519531 1.078125 -5.5625 C 1.191406 -5.601562 2.226562 -6.171875 4.1875 -7.265625 C 4.601562 -7.472656 4.753906 -7.3125 4.640625 -6.78125 Z M 0.359375 -1.546875 C 0.867188 -1.828125 1.039062 -2.222656 0.875 -2.734375 C 0.863281 -2.773438 0.84375 -2.820312 0.8125 -2.875 C 0.738281 -3.15625 0.640625 -3.367188 0.515625 -3.515625 C 0.398438 -3.660156 0.195312 -3.625 -0.09375 -3.40625 C -0.820312 -2.8125 -1.476562 -2.15625 -2.0625 -1.4375 C -2.09375 -1.382812 -2.125 -1.328125 -2.15625 -1.265625 C -2.15625 -1.265625 -2.160156 -1.253906 -2.171875 -1.234375 C -2.210938 -1.160156 -2.210938 -1.085938 -2.171875 -1.015625 C -2.128906 -0.941406 -2.054688 -0.914062 -1.953125 -0.9375 C -1.140625 -0.9375 -0.367188 -1.140625 0.359375 -1.546875 Z M 0.359375 -1.546875 "/></g></g><g transform="translate(58.719338, 47.783922)"><g/></g><g transform="translate(67.474447, 46.361884)"><g><path d="M 83.921875 -5.71875 C 83.953125 -5.707031 83.976562 -5.675781 84 -5.625 C 84.019531 -5.582031 84.03125 -5.546875 84.03125 -5.515625 C 84.019531 -5.453125 84 -5.398438 83.96875 -5.359375 C 83.945312 -5.328125 83.921875 -5.296875 83.890625 -5.265625 C 83.742188 -5.179688 83.59375 -5.132812 83.4375 -5.125 C 83.28125 -5.101562 83.128906 -5.085938 82.984375 -5.078125 C 82.921875 -5.085938 82.867188 -5.085938 82.828125 -5.078125 C 82.097656 -5.023438 81.363281 -4.988281 80.625 -4.96875 C 78.945312 -4.851562 77.269531 -4.738281 75.59375 -4.625 C 72.351562 -4.394531 69.109375 -4.140625 65.859375 -3.859375 C 61.316406 -3.429688 56.785156 -2.941406 52.265625 -2.390625 C 49.015625 -1.984375 45.769531 -1.546875 42.53125 -1.078125 C 42.1875 -1.035156 41.828125 -0.984375 41.453125 -0.921875 C 41.078125 -0.867188 40.71875 -0.816406 40.375 -0.765625 C 38.175781 -0.472656 35.972656 -0.148438 33.765625 0.203125 L 33.71875 0.21875 C 32.4375 0.425781 31.164062 0.664062 29.90625 0.9375 C 29.414062 1.019531 28.945312 1.097656 28.5 1.171875 C 27.925781 1.285156 27.351562 1.5 26.78125 1.8125 C 22.59375 4.09375 18.28125 5.96875 13.84375 7.4375 C 12.5625 7.863281 11.28125 8.253906 10 8.609375 C 8.726562 8.972656 7.429688 9.265625 6.109375 9.484375 C 5.691406 9.546875 5.269531 9.601562 4.84375 9.65625 C 4.195312 9.757812 3.5625 9.78125 2.9375 9.71875 C 2.6875 9.695312 2.453125 9.65625 2.234375 9.59375 C 2.046875 9.550781 1.875 9.472656 1.71875 9.359375 C 1.570312 9.253906 1.488281 9.09375 1.46875 8.875 C 1.46875 8.644531 1.53125 8.4375 1.65625 8.25 C 1.789062 8.070312 1.9375 7.921875 2.09375 7.796875 C 2.644531 7.359375 3.238281 7.03125 3.875 6.8125 C 4.1875 6.675781 4.507812 6.546875 4.84375 6.421875 C 5.90625 5.972656 6.976562 5.582031 8.0625 5.25 C 12.4375 3.84375 16.835938 2.6875 21.265625 1.78125 C 21.535156 1.695312 21.796875 1.628906 22.046875 1.578125 C 23.398438 1.285156 24.765625 1.003906 26.140625 0.734375 C 26.628906 0.640625 27.109375 0.46875 27.578125 0.21875 C 29.171875 -0.6875 30.726562 -1.664062 32.25 -2.71875 C 33.769531 -3.769531 35.238281 -4.914062 36.65625 -6.15625 C 37.851562 -7.164062 38.910156 -8.300781 39.828125 -9.5625 C 40.347656 -10.269531 40.75 -11.03125 41.03125 -11.84375 C 41.375 -13.007812 41.125 -13.929688 40.28125 -14.609375 C 39.6875 -15.054688 39.015625 -15.367188 38.265625 -15.546875 C 37.285156 -15.828125 36.273438 -16.007812 35.234375 -16.09375 C 34.203125 -16.1875 33.164062 -16.242188 32.125 -16.265625 C 29.15625 -16.265625 26.160156 -16.078125 23.140625 -15.703125 C 23.023438 -15.679688 22.921875 -15.664062 22.828125 -15.65625 C 22.703125 -15.632812 22.582031 -15.613281 22.46875 -15.59375 C 22.226562 -15.507812 22.0625 -15.328125 21.96875 -15.046875 C 21.914062 -14.910156 21.867188 -14.785156 21.828125 -14.671875 C 21.734375 -14.390625 21.640625 -14.113281 21.546875 -13.84375 C 20.835938 -11.507812 20.125 -9.191406 19.40625 -6.890625 C 18.820312 -4.921875 18.222656 -2.96875 17.609375 -1.03125 C 17.609375 -0.957031 17.601562 -0.890625 17.59375 -0.828125 C 17.507812 -0.597656 17.421875 -0.367188 17.328125 -0.140625 C 17.203125 0.0546875 17.03125 0.15625 16.8125 0.15625 C 16.6875 0.195312 16.570312 0.210938 16.46875 0.203125 C 16.238281 0.117188 16.140625 -0.0351562 16.171875 -0.265625 C 16.285156 -0.765625 16.410156 -1.265625 16.546875 -1.765625 C 17.441406 -4.835938 18.328125 -7.898438 19.203125 -10.953125 C 19.492188 -11.921875 19.785156 -12.890625 20.078125 -13.859375 C 20.085938 -13.953125 20.101562 -14.035156 20.125 -14.109375 C 20.195312 -14.335938 20.253906 -14.5625 20.296875 -14.78125 C 20.367188 -15.101562 20.253906 -15.242188 19.953125 -15.203125 C 19.785156 -15.203125 19.625 -15.1875 19.46875 -15.15625 C 19.269531 -15.132812 19.078125 -15.117188 18.890625 -15.109375 C 18.859375 -15.109375 18.816406 -15.101562 18.765625 -15.09375 C 18.523438 -15.070312 18.296875 -15.070312 18.078125 -15.09375 C 17.859375 -15.125 17.71875 -15.265625 17.65625 -15.515625 C 17.601562 -15.796875 17.660156 -16.019531 17.828125 -16.1875 C 18.003906 -16.363281 18.207031 -16.515625 18.4375 -16.640625 C 18.507812 -16.679688 18.582031 -16.71875 18.65625 -16.75 C 19.257812 -17.125 19.875 -17.46875 20.5 -17.78125 C 20.5625 -17.820312 20.632812 -17.859375 20.71875 -17.890625 C 21.195312 -18.128906 21.53125 -18.515625 21.71875 -19.046875 C 22.488281 -21.390625 23.273438 -23.726562 24.078125 -26.0625 C 24.335938 -26.863281 24.609375 -27.679688 24.890625 -28.515625 C 24.941406 -28.628906 24.976562 -28.742188 25 -28.859375 C 25.070312 -29.078125 25.148438 -29.300781 25.234375 -29.53125 C 25.367188 -29.820312 25.578125 -29.960938 25.859375 -29.953125 C 25.984375 -29.984375 26.109375 -29.992188 26.234375 -29.984375 C 26.492188 -29.910156 26.601562 -29.722656 26.5625 -29.421875 C 26.5625 -29.398438 26.550781 -29.390625 26.53125 -29.390625 C 26.4375 -28.785156 26.296875 -28.191406 26.109375 -27.609375 C 25.660156 -26.203125 25.195312 -24.785156 24.71875 -23.359375 C 24.570312 -22.878906 24.414062 -22.398438 24.25 -21.921875 C 24.15625 -21.679688 24.070312 -21.441406 24 -21.203125 C 23.863281 -20.796875 23.726562 -20.382812 23.59375 -19.96875 C 23.59375 -19.96875 23.582031 -19.953125 23.5625 -19.921875 C 23.539062 -19.859375 23.523438 -19.785156 23.515625 -19.703125 C 23.515625 -19.628906 23.5625 -19.585938 23.65625 -19.578125 C 23.707031 -19.566406 23.757812 -19.554688 23.8125 -19.546875 L 23.859375 -19.578125 C 23.960938 -19.609375 24.070312 -19.648438 24.1875 -19.703125 C 24.21875 -19.734375 24.25 -19.753906 24.28125 -19.765625 C 27.800781 -21.546875 31.316406 -23.363281 34.828125 -25.21875 C 38.335938 -27.082031 41.8125 -29.039062 45.25 -31.09375 C 45.332031 -31.144531 45.40625 -31.179688 45.46875 -31.203125 C 46.507812 -31.835938 47.546875 -32.476562 48.578125 -33.125 C 49.617188 -33.78125 50.640625 -34.46875 51.640625 -35.1875 C 52.390625 -35.707031 53.078125 -36.300781 53.703125 -36.96875 C 55.035156 -38.445312 54.921875 -39.566406 53.359375 -40.328125 C 52.628906 -40.671875 51.859375 -40.894531 51.046875 -41 C 50.234375 -41.101562 49.414062 -41.144531 48.59375 -41.125 C 46.601562 -41.101562 44.617188 -40.929688 42.640625 -40.609375 L 42.609375 -40.59375 C 40.679688 -40.257812 38.757812 -39.851562 36.84375 -39.375 C 32.570312 -38.289062 28.367188 -36.859375 24.234375 -35.078125 C 20.410156 -33.441406 16.726562 -31.460938 13.1875 -29.140625 C 12.25 -28.535156 11.351562 -27.878906 10.5 -27.171875 C 10.25 -26.953125 10 -26.757812 9.75 -26.59375 C 9.613281 -26.5 9.472656 -26.457031 9.328125 -26.46875 C 9.148438 -26.40625 8.988281 -26.421875 8.84375 -26.515625 C 8.738281 -26.628906 8.71875 -26.742188 8.78125 -26.859375 C 8.84375 -26.972656 8.925781 -27.078125 9.03125 -27.171875 C 9.757812 -27.878906 10.535156 -28.5 11.359375 -29.03125 C 11.367188 -29.03125 11.378906 -29.039062 11.390625 -29.0625 C 14.710938 -31.34375 18.179688 -33.296875 21.796875 -34.921875 C 26.984375 -37.304688 32.289062 -39.128906 37.71875 -40.390625 C 39.40625 -40.796875 41.085938 -41.132812 42.765625 -41.40625 C 44.585938 -41.726562 46.414062 -41.929688 48.25 -42.015625 C 49.96875 -42.117188 51.644531 -41.984375 53.28125 -41.609375 C 54.039062 -41.453125 54.726562 -41.148438 55.34375 -40.703125 C 55.863281 -40.296875 56.144531 -39.800781 56.1875 -39.21875 C 56.226562 -38.632812 56.046875 -38.019531 55.640625 -37.375 C 55.078125 -36.625 54.4375 -35.96875 53.71875 -35.40625 C 52.84375 -34.707031 51.9375 -34.054688 51 -33.453125 C 50.070312 -32.859375 49.128906 -32.269531 48.171875 -31.6875 C 48.148438 -31.675781 48.117188 -31.65625 48.078125 -31.625 C 44.753906 -29.570312 41.382812 -27.632812 37.96875 -25.8125 C 34.5625 -23.988281 31.140625 -22.195312 27.703125 -20.4375 C 27.117188 -20.144531 26.539062 -19.835938 25.96875 -19.515625 C 25.15625 -19.097656 24.347656 -18.6875 23.546875 -18.28125 C 23.191406 -18.132812 22.929688 -17.878906 22.765625 -17.515625 C 22.628906 -17.171875 22.582031 -16.914062 22.625 -16.75 C 22.675781 -16.59375 22.882812 -16.539062 23.25 -16.59375 C 24.226562 -16.71875 25.203125 -16.820312 26.171875 -16.90625 C 26.242188 -16.914062 26.304688 -16.925781 26.359375 -16.9375 C 28.210938 -17.113281 30.050781 -17.207031 31.875 -17.21875 C 33.695312 -17.238281 35.503906 -17.117188 37.296875 -16.859375 C 38.066406 -16.742188 38.816406 -16.597656 39.546875 -16.421875 C 40.035156 -16.285156 40.507812 -16.09375 40.96875 -15.84375 C 42.9375 -14.769531 43.34375 -13.085938 42.1875 -10.796875 C 41.8125 -10.023438 41.34375 -9.304688 40.78125 -8.640625 C 39.425781 -7.035156 37.921875 -5.585938 36.265625 -4.296875 C 34.828125 -3.179688 33.363281 -2.128906 31.875 -1.140625 C 31.695312 -1.046875 31.519531 -0.929688 31.34375 -0.796875 C 31.238281 -0.734375 31.132812 -0.660156 31.03125 -0.578125 C 31.15625 -0.441406 31.257812 -0.363281 31.34375 -0.34375 C 31.4375 -0.320312 31.535156 -0.332031 31.640625 -0.375 C 31.640625 -0.375 31.644531 -0.375 31.65625 -0.375 C 31.957031 -0.40625 32.238281 -0.441406 32.5 -0.484375 L 32.546875 -0.484375 C 32.734375 -0.515625 32.914062 -0.554688 33.09375 -0.609375 C 33.9375 -0.742188 34.785156 -0.882812 35.640625 -1.03125 C 40.679688 -1.820312 45.71875 -2.519531 50.75 -3.125 C 56.21875 -3.820312 61.679688 -4.367188 67.140625 -4.765625 C 68.878906 -4.898438 70.625 -5.023438 72.375 -5.140625 C 74.46875 -5.328125 76.554688 -5.492188 78.640625 -5.640625 C 79.859375 -5.703125 81.082031 -5.742188 82.3125 -5.765625 C 82.601562 -5.785156 82.90625 -5.796875 83.21875 -5.796875 C 83.445312 -5.804688 83.679688 -5.78125 83.921875 -5.71875 Z M 20.703125 -16.359375 C 20.734375 -16.367188 20.757812 -16.398438 20.78125 -16.453125 C 20.8125 -16.515625 20.832031 -16.5625 20.84375 -16.59375 C 20.84375 -16.632812 20.832031 -16.660156 20.8125 -16.671875 C 20.789062 -16.691406 20.753906 -16.71875 20.703125 -16.75 C 20.703125 -16.75 20.695312 -16.753906 20.6875 -16.765625 C 20.507812 -16.691406 20.351562 -16.570312 20.21875 -16.40625 C 20.195312 -16.351562 20.191406 -16.304688 20.203125 -16.265625 C 20.210938 -16.222656 20.242188 -16.207031 20.296875 -16.21875 C 20.429688 -16.238281 20.566406 -16.285156 20.703125 -16.359375 Z M 22.515625 2.875 C 22.546875 2.84375 22.582031 2.828125 22.625 2.828125 C 22.6875 2.804688 22.742188 2.765625 22.796875 2.703125 C 22.859375 2.648438 22.898438 2.578125 22.921875 2.484375 C 22.878906 2.421875 22.84375 2.382812 22.8125 2.375 C 22.789062 2.375 22.773438 2.375 22.765625 2.375 C 18.671875 3.238281 14.597656 4.253906 10.546875 5.421875 C 8.554688 6.003906 6.585938 6.71875 4.640625 7.5625 C 4.609375 7.59375 4.566406 7.617188 4.515625 7.640625 C 4.171875 7.765625 3.867188 7.960938 3.609375 8.234375 C 3.546875 8.296875 3.507812 8.363281 3.5 8.4375 C 3.5 8.507812 3.546875 8.5625 3.640625 8.59375 C 3.816406 8.632812 4.007812 8.664062 4.21875 8.6875 C 4.894531 8.695312 5.570312 8.648438 6.25 8.546875 C 6.820312 8.453125 7.398438 8.332031 7.984375 8.1875 C 12.929688 6.9375 17.773438 5.164062 22.515625 2.875 Z M 22.515625 2.875 "/></g></g><g transform="translate(113.438764, 38.896188)"><g><path d="M 4.390625 -8.015625 C 4.410156 -7.472656 4.21875 -7.082031 3.8125 -6.84375 C 3.414062 -6.613281 3.242188 -6.804688 3.296875 -7.421875 C 3.347656 -8.035156 3.054688 -8.140625 2.421875 -7.734375 C 1.796875 -7.335938 1.296875 -6.882812 0.921875 -6.375 C 0.359375 -5.5625 -0.117188 -4.710938 -0.515625 -3.828125 C -0.546875 -3.742188 -0.582031 -3.679688 -0.625 -3.640625 C -0.738281 -3.378906 -0.859375 -3.140625 -0.984375 -2.921875 C -1.046875 -2.765625 -1.144531 -2.65625 -1.28125 -2.59375 C -1.414062 -2.539062 -1.550781 -2.515625 -1.6875 -2.515625 C -1.832031 -2.515625 -1.941406 -2.550781 -2.015625 -2.625 C -2.097656 -2.695312 -2.125 -2.796875 -2.09375 -2.921875 C -2.039062 -3.140625 -1.976562 -3.367188 -1.90625 -3.609375 C -1.414062 -5.003906 -0.914062 -6.414062 -0.40625 -7.84375 C -0.394531 -7.851562 -0.390625 -7.867188 -0.390625 -7.890625 C -0.328125 -8.097656 -0.234375 -8.300781 -0.109375 -8.5 C 0.015625 -8.6875 0.175781 -8.78125 0.375 -8.78125 C 0.582031 -8.78125 0.734375 -8.679688 0.828125 -8.484375 C 0.972656 -8.242188 1.078125 -8.109375 1.140625 -8.078125 C 1.210938 -8.054688 1.347656 -8.097656 1.546875 -8.203125 C 1.984375 -8.453125 2.414062 -8.644531 2.84375 -8.78125 C 3.269531 -8.925781 3.628906 -8.96875 3.921875 -8.90625 C 4.222656 -8.851562 4.378906 -8.554688 4.390625 -8.015625 Z M 4.390625 -8.015625 "/></g></g><g transform="translate(119.229179, 37.955687)"><g><path d="M 7.4375 -7.25 C 7.632812 -7.175781 7.691406 -6.929688 7.609375 -6.515625 C 7.429688 -6.179688 7.234375 -5.863281 7.015625 -5.5625 C 6.804688 -5.269531 6.566406 -5.003906 6.296875 -4.765625 C 6.273438 -4.753906 6.265625 -4.738281 6.265625 -4.71875 C 6.097656 -4.550781 5.90625 -4.398438 5.6875 -4.265625 C 3.957031 -3.296875 2.953125 -3.53125 2.671875 -4.96875 C 2.023438 -4.207031 1.582031 -3.734375 1.34375 -3.546875 C 0.800781 -3.078125 0.171875 -2.804688 -0.546875 -2.734375 C -1.066406 -2.679688 -1.445312 -2.78125 -1.6875 -3.03125 C -1.925781 -3.289062 -1.972656 -3.679688 -1.828125 -4.203125 C -1.609375 -5.046875 -1.234375 -5.832031 -0.703125 -6.5625 C -0.0859375 -7.351562 0.632812 -8.019531 1.46875 -8.5625 C 1.90625 -8.882812 2.390625 -9.0625 2.921875 -9.09375 C 3.453125 -9.144531 3.816406 -8.898438 4.015625 -8.359375 C 4.097656 -8.191406 4.082031 -8.03125 3.96875 -7.875 C 3.820312 -7.6875 3.628906 -7.625 3.390625 -7.6875 C 3.367188 -7.6875 3.34375 -7.6875 3.3125 -7.6875 C 3.289062 -7.6875 3.269531 -7.695312 3.25 -7.71875 C 2.976562 -7.988281 2.734375 -8.078125 2.515625 -7.984375 C 2.296875 -7.898438 2.066406 -7.757812 1.828125 -7.5625 C 0.753906 -6.675781 0.0351562 -5.566406 -0.328125 -4.234375 C -0.347656 -4.171875 -0.359375 -4.101562 -0.359375 -4.03125 C -0.359375 -3.96875 -0.332031 -3.925781 -0.28125 -3.90625 C -0.132812 -3.875 0.015625 -3.90625 0.171875 -4 C 0.328125 -4.09375 0.476562 -4.210938 0.625 -4.359375 C 0.78125 -4.515625 0.914062 -4.644531 1.03125 -4.75 C 1.03125 -4.769531 1.03125 -4.78125 1.03125 -4.78125 C 1.519531 -5.351562 1.992188 -5.929688 2.453125 -6.515625 C 2.648438 -6.804688 2.921875 -7 3.265625 -7.09375 C 3.785156 -7.175781 4.039062 -6.972656 4.03125 -6.484375 C 4 -6.316406 3.972656 -6.144531 3.953125 -5.96875 C 3.867188 -5.207031 3.929688 -4.773438 4.140625 -4.671875 C 4.347656 -4.566406 4.632812 -4.609375 5 -4.796875 C 5.363281 -4.992188 5.703125 -5.300781 6.015625 -5.71875 C 6.335938 -6.144531 6.601562 -6.523438 6.8125 -6.859375 C 7.03125 -7.203125 7.238281 -7.332031 7.4375 -7.25 Z M 7.4375 -7.25 "/></g></g><g transform="translate(126.90727, 36.708583)"><g><path d="M 8.234375 -7.265625 C 8.378906 -7.128906 8.269531 -6.820312 7.90625 -6.34375 C 7.539062 -5.863281 7.132812 -5.445312 6.6875 -5.09375 C 6.25 -4.738281 5.734375 -4.367188 5.140625 -3.984375 C 4.742188 -3.734375 4.300781 -3.597656 3.8125 -3.578125 C 3.320312 -3.566406 3.035156 -3.816406 2.953125 -4.328125 C 2.867188 -4.847656 2.910156 -5.382812 3.078125 -5.9375 C 3.222656 -6.5 3.226562 -6.773438 3.09375 -6.765625 C 2.957031 -6.753906 2.695312 -6.582031 2.3125 -6.25 C 1.332031 -5.34375 0.441406 -4.347656 -0.359375 -3.265625 C -0.566406 -2.910156 -0.863281 -2.6875 -1.25 -2.59375 C -1.445312 -2.550781 -1.613281 -2.582031 -1.75 -2.6875 C -1.882812 -2.800781 -1.925781 -2.941406 -1.875 -3.109375 C -1.394531 -4.484375 -0.90625 -5.835938 -0.40625 -7.171875 C -0.289062 -7.453125 -0.0820312 -7.648438 0.21875 -7.765625 C 0.34375 -7.804688 0.46875 -7.785156 0.59375 -7.703125 C 0.726562 -7.617188 0.804688 -7.507812 0.828125 -7.375 C 0.828125 -7.238281 0.796875 -7.082031 0.734375 -6.90625 C 0.722656 -6.800781 0.707031 -6.695312 0.6875 -6.59375 C 0.664062 -6.5 0.664062 -6.421875 0.6875 -6.359375 C 0.71875 -6.304688 0.765625 -6.296875 0.828125 -6.328125 C 0.929688 -6.410156 1.035156 -6.492188 1.140625 -6.578125 C 1.421875 -6.804688 1.675781 -7.015625 1.90625 -7.203125 C 2.132812 -7.378906 2.375 -7.539062 2.625 -7.6875 C 2.875 -7.84375 3.128906 -7.96875 3.390625 -8.0625 C 3.859375 -8.164062 4.207031 -8.109375 4.4375 -7.890625 C 4.664062 -7.679688 4.742188 -7.359375 4.671875 -6.921875 C 4.578125 -6.492188 4.476562 -6.085938 4.375 -5.703125 C 4.21875 -5.296875 4.222656 -5.015625 4.390625 -4.859375 C 4.566406 -4.703125 5.175781 -5.019531 6.21875 -5.8125 L 7 -6.46875 C 7.738281 -7.125 8.148438 -7.390625 8.234375 -7.265625 Z M 8.234375 -7.265625 "/></g></g><g transform="translate(135.396019, 35.329809)"><g><path d="M 8.234375 -7.265625 C 8.378906 -7.128906 8.269531 -6.820312 7.90625 -6.34375 C 7.539062 -5.863281 7.132812 -5.445312 6.6875 -5.09375 C 6.25 -4.738281 5.734375 -4.367188 5.140625 -3.984375 C 4.742188 -3.734375 4.300781 -3.597656 3.8125 -3.578125 C 3.320312 -3.566406 3.035156 -3.816406 2.953125 -4.328125 C 2.867188 -4.847656 2.910156 -5.382812 3.078125 -5.9375 C 3.222656 -6.5 3.226562 -6.773438 3.09375 -6.765625 C 2.957031 -6.753906 2.695312 -6.582031 2.3125 -6.25 C 1.332031 -5.34375 0.441406 -4.347656 -0.359375 -3.265625 C -0.566406 -2.910156 -0.863281 -2.6875 -1.25 -2.59375 C -1.445312 -2.550781 -1.613281 -2.582031 -1.75 -2.6875 C -1.882812 -2.800781 -1.925781 -2.941406 -1.875 -3.109375 C -1.394531 -4.484375 -0.90625 -5.835938 -0.40625 -7.171875 C -0.289062 -7.453125 -0.0820312 -7.648438 0.21875 -7.765625 C 0.34375 -7.804688 0.46875 -7.785156 0.59375 -7.703125 C 0.726562 -7.617188 0.804688 -7.507812 0.828125 -7.375 C 0.828125 -7.238281 0.796875 -7.082031 0.734375 -6.90625 C 0.722656 -6.800781 0.707031 -6.695312 0.6875 -6.59375 C 0.664062 -6.5 0.664062 -6.421875 0.6875 -6.359375 C 0.71875 -6.304688 0.765625 -6.296875 0.828125 -6.328125 C 0.929688 -6.410156 1.035156 -6.492188 1.140625 -6.578125 C 1.421875 -6.804688 1.675781 -7.015625 1.90625 -7.203125 C 2.132812 -7.378906 2.375 -7.539062 2.625 -7.6875 C 2.875 -7.84375 3.128906 -7.96875 3.390625 -8.0625 C 3.859375 -8.164062 4.207031 -8.109375 4.4375 -7.890625 C 4.664062 -7.679688 4.742188 -7.359375 4.671875 -6.921875 C 4.578125 -6.492188 4.476562 -6.085938 4.375 -5.703125 C 4.21875 -5.296875 4.222656 -5.015625 4.390625 -4.859375 C 4.566406 -4.703125 5.175781 -5.019531 6.21875 -5.8125 L 7 -6.46875 C 7.738281 -7.125 8.148438 -7.390625 8.234375 -7.265625 Z M 8.234375 -7.265625 "/></g></g><g transform="translate(143.884768, 33.951034)"><g><path d="M 3.8125 -5.625 C 3.476562 -5.070312 3.0625 -4.546875 2.5625 -4.046875 C 2.070312 -3.546875 1.484375 -3.164062 0.796875 -2.90625 C 0.109375 -2.644531 -0.453125 -2.601562 -0.890625 -2.78125 C -1.328125 -2.96875 -1.492188 -3.503906 -1.390625 -4.390625 C -1.234375 -5.328125 -0.945312 -6.234375 -0.53125 -7.109375 C -0.4375 -7.304688 -0.28125 -7.457031 -0.0625 -7.5625 C 0.113281 -7.632812 0.269531 -7.628906 0.40625 -7.546875 C 0.550781 -7.472656 0.625 -7.359375 0.625 -7.203125 C 0.539062 -6.910156 0.453125 -6.613281 0.359375 -6.3125 C 0.265625 -6.007812 0.203125 -5.8125 0.171875 -5.71875 C -0.015625 -5.1875 -0.117188 -4.640625 -0.140625 -4.078125 C -0.0859375 -3.765625 0.328125 -3.8125 1.109375 -4.21875 C 1.890625 -4.625 2.609375 -5.25 3.265625 -6.09375 C 3.929688 -6.945312 4.273438 -7.21875 4.296875 -6.90625 C 4.316406 -6.601562 4.15625 -6.175781 3.8125 -5.625 Z M 1.15625 -9.1875 C 1.125 -9.144531 1.050781 -9.085938 0.9375 -9.015625 C 0.820312 -8.953125 0.695312 -8.898438 0.5625 -8.859375 C 0.4375 -8.828125 0.328125 -8.835938 0.234375 -8.890625 C 0.148438 -8.941406 0.132812 -9.0625 0.1875 -9.25 C 0.25 -9.59375 0.328125 -9.894531 0.421875 -10.15625 C 0.515625 -10.425781 0.644531 -10.722656 0.8125 -11.046875 C 0.9375 -11.210938 1.078125 -11.3125 1.234375 -11.34375 C 1.390625 -11.382812 1.53125 -11.363281 1.65625 -11.28125 C 1.78125 -11.195312 1.835938 -11.066406 1.828125 -10.890625 C 1.742188 -10.265625 1.519531 -9.695312 1.15625 -9.1875 Z M 1.15625 -9.1875 "/></g></g><g transform="translate(148.401292, 33.217443)"><g><path d="M 9.203125 -7.875 C 9.265625 -7.894531 9.335938 -7.90625 9.421875 -7.90625 C 9.503906 -7.90625 9.570312 -7.878906 9.625 -7.828125 C 9.675781 -7.753906 9.6875 -7.664062 9.65625 -7.5625 C 9.625 -7.46875 9.554688 -7.390625 9.453125 -7.328125 C 8.816406 -6.878906 8.175781 -6.414062 7.53125 -5.9375 C 6.78125 -5.382812 6.015625 -4.828125 5.234375 -4.265625 C 5.117188 -4.191406 5.007812 -4.109375 4.90625 -4.015625 C 4.75 -3.898438 4.582031 -3.785156 4.40625 -3.671875 C 4.007812 -3.390625 3.78125 -3.015625 3.71875 -2.546875 C 3.519531 -1.441406 3.300781 -0.335938 3.0625 0.765625 C 2.75 2.234375 2.304688 3.660156 1.734375 5.046875 C 1.410156 5.835938 0.984375 6.554688 0.453125 7.203125 C -0.179688 8.023438 -0.96875 8.609375 -1.90625 8.953125 C -3.445312 9.546875 -5.003906 9.691406 -6.578125 9.390625 C -7.222656 9.273438 -7.804688 9.007812 -8.328125 8.59375 C -9.023438 8.0625 -9.164062 7.378906 -8.75 6.546875 C -8.550781 6.203125 -8.332031 5.875 -8.09375 5.5625 C -7.519531 4.851562 -6.894531 4.203125 -6.21875 3.609375 C -3.757812 1.410156 -1.207031 -0.65625 1.4375 -2.59375 C 1.445312 -2.59375 1.453125 -2.59375 1.453125 -2.59375 C 1.742188 -2.800781 2.019531 -3.015625 2.28125 -3.234375 C 2.320312 -3.285156 2.367188 -3.378906 2.421875 -3.515625 C 2.484375 -3.660156 2.523438 -3.796875 2.546875 -3.921875 C 2.578125 -4.054688 2.554688 -4.148438 2.484375 -4.203125 C 2.410156 -4.253906 2.253906 -4.195312 2.015625 -4.03125 C 1.921875 -3.976562 1.835938 -3.921875 1.765625 -3.859375 C 1.546875 -3.722656 1.335938 -3.585938 1.140625 -3.453125 C -0.128906 -2.929688 -0.875 -3.335938 -1.09375 -4.671875 C -1.195312 -5.484375 -1.070312 -6.242188 -0.71875 -6.953125 C -0.375 -7.671875 0.117188 -8.269531 0.765625 -8.75 C 1.410156 -9.226562 2.144531 -9.5 2.96875 -9.5625 C 3.050781 -9.570312 3.140625 -9.578125 3.234375 -9.578125 C 3.460938 -9.578125 3.691406 -9.59375 3.921875 -9.625 C 4.148438 -9.664062 4.375 -9.757812 4.59375 -9.90625 C 4.84375 -10.03125 5.039062 -10.023438 5.1875 -9.890625 C 5.34375 -9.753906 5.394531 -9.550781 5.34375 -9.28125 C 5.207031 -8.769531 5.070312 -8.25 4.9375 -7.71875 C 4.820312 -7.394531 4.722656 -7.054688 4.640625 -6.703125 C 4.546875 -6.347656 4.453125 -5.976562 4.359375 -5.59375 C 4.222656 -5.101562 4.226562 -4.859375 4.375 -4.859375 C 4.53125 -4.859375 4.769531 -4.972656 5.09375 -5.203125 C 5.132812 -5.234375 5.179688 -5.257812 5.234375 -5.28125 C 5.828125 -5.695312 6.429688 -6.109375 7.046875 -6.515625 C 7.472656 -6.796875 7.898438 -7.085938 8.328125 -7.390625 C 8.617188 -7.566406 8.910156 -7.726562 9.203125 -7.875 Z M 1.984375 -0.3125 C 2.117188 -1.019531 2.148438 -1.476562 2.078125 -1.6875 C 2.015625 -1.90625 1.859375 -1.941406 1.609375 -1.796875 C 1.367188 -1.648438 1.050781 -1.40625 0.65625 -1.0625 C 0.425781 -0.84375 0.160156 -0.628906 -0.140625 -0.421875 C -1.921875 0.953125 -3.640625 2.394531 -5.296875 3.90625 C -6.035156 4.519531 -6.671875 5.21875 -7.203125 6 C -7.765625 6.820312 -7.632812 7.457031 -6.8125 7.90625 C -6.34375 8.1875 -5.832031 8.351562 -5.28125 8.40625 C -4.726562 8.457031 -4.144531 8.4375 -3.53125 8.34375 C -2.789062 8.269531 -2.132812 8.019531 -1.5625 7.59375 C -0.988281 7.164062 -0.488281 6.582031 -0.0625 5.84375 C 0.175781 5.363281 0.40625 4.875 0.625 4.375 C 1.257812 2.84375 1.710938 1.28125 1.984375 -0.3125 Z M 0.578125 -4.296875 C 0.785156 -4.242188 1.0625 -4.363281 1.40625 -4.65625 C 1.75 -4.945312 2.085938 -5.328125 2.421875 -5.796875 C 2.765625 -6.265625 3.015625 -6.726562 3.171875 -7.1875 C 3.335938 -7.65625 3.335938 -8.03125 3.171875 -8.3125 C 3.128906 -8.382812 3.066406 -8.445312 2.984375 -8.5 C 2.835938 -8.625 2.691406 -8.671875 2.546875 -8.640625 C 2.398438 -8.617188 2.242188 -8.566406 2.078125 -8.484375 C 1.554688 -8.171875 1.125 -7.707031 0.78125 -7.09375 C 0.4375 -6.488281 0.234375 -5.90625 0.171875 -5.34375 C 0.109375 -4.78125 0.242188 -4.429688 0.578125 -4.296875 Z M 0.578125 -4.296875 "/></g></g><g transform="translate(158.291322, 31.611068)"><g><path d="M 7.4375 -7.25 C 7.632812 -7.175781 7.691406 -6.929688 7.609375 -6.515625 C 7.429688 -6.179688 7.234375 -5.863281 7.015625 -5.5625 C 6.804688 -5.269531 6.566406 -5.003906 6.296875 -4.765625 C 6.273438 -4.753906 6.265625 -4.738281 6.265625 -4.71875 C 6.097656 -4.550781 5.90625 -4.398438 5.6875 -4.265625 C 3.957031 -3.296875 2.953125 -3.53125 2.671875 -4.96875 C 2.023438 -4.207031 1.582031 -3.734375 1.34375 -3.546875 C 0.800781 -3.078125 0.171875 -2.804688 -0.546875 -2.734375 C -1.066406 -2.679688 -1.445312 -2.78125 -1.6875 -3.03125 C -1.925781 -3.289062 -1.972656 -3.679688 -1.828125 -4.203125 C -1.609375 -5.046875 -1.234375 -5.832031 -0.703125 -6.5625 C -0.0859375 -7.351562 0.632812 -8.019531 1.46875 -8.5625 C 1.90625 -8.882812 2.390625 -9.0625 2.921875 -9.09375 C 3.453125 -9.144531 3.816406 -8.898438 4.015625 -8.359375 C 4.097656 -8.191406 4.082031 -8.03125 3.96875 -7.875 C 3.820312 -7.6875 3.628906 -7.625 3.390625 -7.6875 C 3.367188 -7.6875 3.34375 -7.6875 3.3125 -7.6875 C 3.289062 -7.6875 3.269531 -7.695312 3.25 -7.71875 C 2.976562 -7.988281 2.734375 -8.078125 2.515625 -7.984375 C 2.296875 -7.898438 2.066406 -7.757812 1.828125 -7.5625 C 0.753906 -6.675781 0.0351562 -5.566406 -0.328125 -4.234375 C -0.347656 -4.171875 -0.359375 -4.101562 -0.359375 -4.03125 C -0.359375 -3.96875 -0.332031 -3.925781 -0.28125 -3.90625 C -0.132812 -3.875 0.015625 -3.90625 0.171875 -4 C 0.328125 -4.09375 0.476562 -4.210938 0.625 -4.359375 C 0.78125 -4.515625 0.914062 -4.644531 1.03125 -4.75 C 1.03125 -4.769531 1.03125 -4.78125 1.03125 -4.78125 C 1.519531 -5.351562 1.992188 -5.929688 2.453125 -6.515625 C 2.648438 -6.804688 2.921875 -7 3.265625 -7.09375 C 3.785156 -7.175781 4.039062 -6.972656 4.03125 -6.484375 C 4 -6.316406 3.972656 -6.144531 3.953125 -5.96875 C 3.867188 -5.207031 3.929688 -4.773438 4.140625 -4.671875 C 4.347656 -4.566406 4.632812 -4.609375 5 -4.796875 C 5.363281 -4.992188 5.703125 -5.300781 6.015625 -5.71875 C 6.335938 -6.144531 6.601562 -6.523438 6.8125 -6.859375 C 7.03125 -7.203125 7.238281 -7.332031 7.4375 -7.25 Z M 7.4375 -7.25 "/></g></g><g transform="translate(165.969412, 30.363964)"><g><path d="M 8.234375 -7.265625 C 8.378906 -7.128906 8.269531 -6.820312 7.90625 -6.34375 C 7.539062 -5.863281 7.132812 -5.445312 6.6875 -5.09375 C 6.25 -4.738281 5.734375 -4.367188 5.140625 -3.984375 C 4.742188 -3.734375 4.300781 -3.597656 3.8125 -3.578125 C 3.320312 -3.566406 3.035156 -3.816406 2.953125 -4.328125 C 2.867188 -4.847656 2.910156 -5.382812 3.078125 -5.9375 C 3.222656 -6.5 3.226562 -6.773438 3.09375 -6.765625 C 2.957031 -6.753906 2.695312 -6.582031 2.3125 -6.25 C 1.332031 -5.34375 0.441406 -4.347656 -0.359375 -3.265625 C -0.566406 -2.910156 -0.863281 -2.6875 -1.25 -2.59375 C -1.445312 -2.550781 -1.613281 -2.582031 -1.75 -2.6875 C -1.882812 -2.800781 -1.925781 -2.941406 -1.875 -3.109375 C -1.394531 -4.484375 -0.90625 -5.835938 -0.40625 -7.171875 C -0.289062 -7.453125 -0.0820312 -7.648438 0.21875 -7.765625 C 0.34375 -7.804688 0.46875 -7.785156 0.59375 -7.703125 C 0.726562 -7.617188 0.804688 -7.507812 0.828125 -7.375 C 0.828125 -7.238281 0.796875 -7.082031 0.734375 -6.90625 C 0.722656 -6.800781 0.707031 -6.695312 0.6875 -6.59375 C 0.664062 -6.5 0.664062 -6.421875 0.6875 -6.359375 C 0.71875 -6.304688 0.765625 -6.296875 0.828125 -6.328125 C 0.929688 -6.410156 1.035156 -6.492188 1.140625 -6.578125 C 1.421875 -6.804688 1.675781 -7.015625 1.90625 -7.203125 C 2.132812 -7.378906 2.375 -7.539062 2.625 -7.6875 C 2.875 -7.84375 3.128906 -7.96875 3.390625 -8.0625 C 3.859375 -8.164062 4.207031 -8.109375 4.4375 -7.890625 C 4.664062 -7.679688 4.742188 -7.359375 4.671875 -6.921875 C 4.578125 -6.492188 4.476562 -6.085938 4.375 -5.703125 C 4.21875 -5.296875 4.222656 -5.015625 4.390625 -4.859375 C 4.566406 -4.703125 5.175781 -5.019531 6.21875 -5.8125 L 7 -6.46875 C 7.738281 -7.125 8.148438 -7.390625 8.234375 -7.265625 Z M 8.234375 -7.265625 "/></g></g></g></g></svg>